<?xml version="1.0" standalone="no"?>
<!DOCTYPE svg PUBLIC "-//W3C//DTD SVG 20010904//EN"
 "http://www.w3.org/TR/2001/REC-SVG-20010904/DTD/svg10.dtd">
<svg version="1.0" xmlns="http://www.w3.org/2000/svg"
 width="705.000000pt" height="705.000000pt" viewBox="0 0 705.000000 705.000000"
 preserveAspectRatio="xMidYMid meet">
<metadata>
Created by potrace 1.14, written by Peter Selinger 2001-2017
</metadata>
<g transform="translate(0.000000,705.000000) scale(0.100000,-0.100000)"
fill="#000000" stroke="none">
<path d="M435 6881 c-82 -20 -163 -87 -206 -171 -21 -40 -24 -61 -27 -195 l-4
-150 3337 -2 3336 -2 -3 152 c-4 178 -11 201 -98 287 -99 100 260 90 -3234 89
-1689 -1 -3084 -4 -3101 -8z m5406 -177 c91 -46 56 -184 -46 -184 -79 0 -129
81 -91 149 27 48 84 63 137 35z m363 5 c25 -12 56 -63 56 -94 0 -25 -28 -73
-49 -85 -46 -24 -114 -3 -137 41 -46 90 39 179 130 138z m366 -6 c39 -26 49
-45 50 -85 0 -51 -33 -88 -86 -95 -35 -4 -46 -1 -73 23 -21 19 -34 42 -38 66
-5 33 -2 41 30 73 40 40 77 45 117 18z"/>
<path d="M1800 5919 c-160 -32 -303 -181 -330 -345 -13 -80 -13 -4178 0 -4258
21 -132 104 -242 228 -303 l76 -38 639 -3 c704 -3 703 -3 793 58 56 39 127
120 152 174 38 79 44 154 40 509 -2 185 0 337 3 337 3 0 21 -32 40 -72 19 -40
67 -124 107 -186 278 -438 601 -680 1052 -790 100 -24 121 -25 471 -29 315 -4
376 -2 430 12 160 40 277 170 308 340 17 93 15 795 -3 888 -19 96 -55 167
-122 237 -62 66 -117 98 -229 135 -44 15 -92 33 -107 41 -38 20 -149 125 -182
173 l-28 40 72 81 c251 286 384 570 434 929 18 129 21 359 5 499 -78 712 -602
1332 -1281 1517 -228 61 -150 58 -1388 61 -638 1 -1155 -2 -1180 -7z m2250
-594 c381 -62 696 -285 871 -618 87 -167 127 -319 136 -517 19 -449 -197 -854
-579 -1080 -45 -28 -87 -51 -92 -53 -29 -10 166 -442 267 -594 58 -87 165
-204 239 -261 64 -49 195 -116 261 -134 l47 -12 0 -243 c0 -200 -3 -245 -14
-249 -32 -12 -382 15 -460 36 -198 53 -321 125 -477 280 -205 204 -372 499
-511 903 l-51 147 -448 0 -449 0 0 -685 0 -685 -355 0 -355 0 0 1890 0 1890
938 0 c796 0 951 -2 1032 -15z"/>
<path d="M2790 4135 l0 -616 543 3 542 3 69 25 c251 88 409 316 409 590 0 273
-147 483 -403 574 l-85 31 -537 3 -538 3 0 -616z m928 29 c18 -5 22 -13 20
-33 l-3 -26 -172 -3 -173 -2 0 35 0 35 153 0 c83 0 162 -3 175 -6z"/>
</g>
</svg>
